<?xml version="1.0" encoding="utf-8"?>
<!-- Generator: Adobe Illustrator 24.2.0, SVG Export Plug-In . SVG Version: 6.00 Build 0)  -->
<svg version="1.1" id="Layer_1" xmlns="http://www.w3.org/2000/svg" xmlns:xlink="http://www.w3.org/1999/xlink" x="0px" y="0px"
	 viewBox="0 0 1000 1000" style="enable-background:new 0 0 1000 1000;" xml:space="preserve">
<style type="text/css">
	.st0{fill-rule:evenodd;clip-rule:evenodd;fill:#5E98CF;}
	.st1{fill:#044E87;}
	.st2{fill:#0062A2;}
	.st3{fill:#FFFFFF;}
</style>
<g>
	<g>
		<path class="st0" d="M500,393.6c-58.8,0-106.4,47.6-106.4,106.4c0,19.2,5.1,37.2,14,52.8L592,446.6
			C573.6,414.9,539.3,393.6,500,393.6z"/>
		<path class="st0" d="M286.4,500c0-118,95.7-213.6,213.6-213.6c79,0,148,42.9,185,106.7l128.8-74.2c-5.2-9.1-12.9-16.7-23.3-22.7
			c-85.6-49.4-171.4-98.6-257-148.1c-23.1-13.3-45.5-12.8-68.4,0.7C431,169,260.4,266.8,209.5,296.2c-20.9,12.1-31.1,30.7-31.1,54.8
			c0,99.3,0,198.6,0,297.9c0,11.9,2.5,22.4,7.5,31.5l128.8-74.2C296.7,575,286.4,538.7,286.4,500z"/>
	</g>
	<g>
		<path class="st1" d="M407.6,552.8c18.3,32,52.8,53.6,92.4,53.6c39.8,0,74.5-21.9,92.7-54.2L501,499L407.6,552.8z"/>
		<path class="st1" d="M500,713.6c-79.3,0-148.5-43.2-185.4-107.3l-128.8,74.2c5.2,9.3,13,17.1,23.6,23.3
			C260.3,733.2,431,831,465.1,851.1c22.9,13.5,45.3,14,68.4,0.7c85.6-49.4,171.4-98.7,257-148.1c10.6-6.1,18.5-14,23.6-23.3
			L685.6,606C648.7,670.3,579.4,713.6,500,713.6z"/>
	</g>
	<path class="st2" d="M821.6,351c0-12.2-2.6-22.9-7.9-32.1L501,499l313.2,181.4c5-9.1,7.5-19.6,7.5-31.5
		C821.7,648.9,821.7,450.4,821.6,351z M715.1,512h-24.5v24.5h-24.5V512h-24.5v-24.5h24.5v-24.5h24.5v24.5h24.5V512z M804.4,512H780
		v24.5h-24.5V512H731v-24.5h24.5v-24.5H780v24.5h24.5V512z"/>
	<g>
		<polygon class="st3" points="780,463.1 755.5,463.1 755.5,487.5 731,487.5 731,512 755.5,512 755.5,536.5 780,536.5 780,512 
			804.4,512 804.4,487.5 780,487.5 		"/>
		<polygon class="st3" points="690.7,463.1 666.2,463.1 666.2,487.5 641.7,487.5 641.7,512 666.2,512 666.2,536.5 690.7,536.5 
			690.7,512 715.1,512 715.1,487.5 690.7,487.5 		"/>
		<path class="st3" d="M592.7,552.2c-18.2,32.4-52.9,54.2-92.7,54.2c-39.5,0-74-21.6-92.4-53.6c-8.9-15.6-14-33.6-14-52.8
			c0-58.8,47.6-106.4,106.4-106.4c39.3,0,73.6,21.3,92,53l93-53.5c-37-63.8-106-106.7-185-106.7c-118,0-213.6,95.7-213.6,213.6
			c0,38.7,10.3,75,28.3,106.3c36.9,64.1,106.1,107.3,185.4,107.3c79.4,0,148.7-43.4,185.6-107.7L592.7,552.2z"/>
	</g>
</g>
</svg>
