<?xml version="1.0" encoding="utf-8"?>
<!-- Generator: Adobe Illustrator 23.0.1, SVG Export Plug-In . SVG Version: 6.00 Build 0)  -->
<svg version="1.1" id="Layer_1" xmlns="http://www.w3.org/2000/svg" xmlns:xlink="http://www.w3.org/1999/xlink" x="0px" y="0px"
	 viewBox="0 0 1000 1000" style="enable-background:new 0 0 1000 1000;" xml:space="preserve">
<style type="text/css">
	.st0{fill:#565689;}
</style>
<path class="st0" d="M16.4,689.9c0-15.2,2.1-28.1,6.3-38.5c4.1-9.9,10.4-18.8,18.5-25.8c8-6.6,17.3-11.4,27.3-14.1
	c10.4-2.9,21.6-4.4,33.6-4.4c10.9-0.1,21.7,1.4,32.1,4.4c10.4,2.9,19.5,7.6,27.3,14.1c7.8,6.5,14,15.1,18.5,25.8
	c4.5,10.4,6.8,23.2,6.8,38.5c0,14.6-2.3,27.1-6.8,37.5c-4.2,9.9-10.5,18.7-18.5,25.8c-7.8,6.8-16.9,11.7-27.3,14.6
	c-10.4,3.3-21.2,4.9-32.1,4.9c-12.1,0-23.2-1.6-33.6-4.9c-10.1-2.8-19.4-7.7-27.3-14.6c-7.8-6.8-14-15.4-18.5-25.8
	C18.5,717,16.4,704.6,16.4,689.9 M291,999.2c-15.9,0-31.7-1.1-48.2-3.4c-16.6-2.3-30.4-5.2-41.4-8.8V870.1
	c10.1,3.2,19.5,5.5,28.6,6.8c9.8,1.7,19.7,2.5,29.7,2.4c8.1,0,15.7-1.3,22.8-3.9c7.6-2.2,14.3-6.8,19-13.1
	c5.5-6.2,9.9-14.6,13.1-25.3c3.2-10.4,4.9-23.9,4.9-40.4V215.1h148.5v603.4c0,25-3.2,48.4-9.7,69.8c-5.6,21.2-16.1,40.7-30.7,57.1
	c-14,16.6-32.1,29.5-54.6,39c-22.4,9.5-49.7,14.1-81.8,14.1 M313.5,73.7c0-14,2.1-25.5,6.3-34.9s9.9-16.9,17-22.4
	c7.5-5.8,16.1-9.9,25.8-12.2c10.1-2.3,20.6-3.4,31.7-3.4c10.5-0.1,20.9,1.1,31.2,3.4c9.3,2.1,17.9,6.2,25.3,12.2
	c7.7,5.8,13.7,13.5,17.5,22.4c4.5,9.1,6.8,20.6,6.8,34.9c0,13.6-2.3,25.2-6.8,34.9c-4.2,9.4-10.1,17-17.5,22.8
	c-7.5,5.7-16.1,9.9-25.3,12.2c-10.2,2.3-20.7,3.5-31.2,3.4c-11,0-21.6-1.1-31.7-3.4c-9.3-2.4-18-6.5-25.8-12.2
	c-7.1-5.8-12.8-13.5-17-22.8S313.5,87.7,313.5,73.7 M983.6,597.9c0,28.6-5.2,53.6-15.9,75c-10.2,21.2-25.4,39.6-44.3,53.6
	c-19.2,14.3-42.4,25-69.7,32.1c-27.3,7.1-57.8,10.7-91.5,10.7c-17.9,0-34.4-0.6-49.7-1.9c-14.5-0.9-29-2.7-43.3-5.4
	c-13.6-2.6-26.8-5.8-39.4-9.7c-13.1-4.1-26-8.9-38.5-14.6V615c13.6,6.8,27.9,12.7,42.8,18.5l45.3,14.6l43.3,9.3
	c13,2.2,26.2,3.3,39.4,3.4c13.3,0,24.7-1.1,34.1-3.4c9.4-2.6,17-6.3,22.8-10.2c6.2-4.5,10.6-9.7,13.1-15.9
	c2.9-6.1,4.4-12.7,4.4-19.5c0-6.8-1.1-12.8-3.4-18c-1.9-5.5-6.3-11.2-14.1-17c-7.5-6.2-18.5-12.7-33.1-20.4l-57.9-28.6l-61.9-31.7
	c-17.2-10.7-31.5-22.2-42.8-35.5c-11.1-13-19.5-28.1-24.8-44.3c-5.5-16.9-8.3-36.8-8.3-59.9c0-25.3,4.9-47.4,14.6-66.2
	c9.7-19.1,23.9-35.5,41.4-47.7c17.9-12.7,39.3-22.1,64.3-28.6c25.3-6.5,53.4-9.7,84.2-9.7c32.5,0,63.3,3.7,92.5,11.2
	c29.2,7.5,59.2,18.7,90.1,33.6l-44.8,105.2c-24.7-11.7-48.2-21.3-70.6-28.7c-21.7-7.3-44.3-11.1-67.2-11.2
	c-20.1,0-34.7,3.6-43.8,10.7c-8.8,7.1-13.1,16.9-13.1,29.2c0,6.5,1.1,12.7,3.4,17.5c2.3,4.9,6.8,10.1,13.6,15.9
	c6.8,5.2,16.4,11,28.7,17.5l48.2,22.8l62.3,30.1c17.4,8.9,33.4,20.3,47.7,33.6c13.2,12.5,23.6,27.6,30.7,44.3
	c7.1,16.9,10.7,37.3,10.7,61.4"/>
</svg>
